# AST/ASF file generated using VICON BodyLanguage
# -----------------------------------------------
:version 1.10
:name VICON
:units
  mass 1.0
  length 0.45
  angle deg
:documentation
   .ast/.asf automatically generated from VICON data using
   VICON BodyBuilder and BodyLanguage model FoxedUp or BRILLIANT.MOD
:root
   order TX TY TZ RX RY RZ
   axis XYZ
   position 0 0 0  
   orientation 0 0 0 
:bonedata
  begin
     id 1 
     name lhipjoint
     direction 0.573633 -0.743009 0.344793 
     length 2.46257 
     axis 0 0 0  XYZ
  end
  begin
     id 2 
     name lfemur
     direction 0.34202 -0.939693 0  
     length 7.3842  
     axis 0 0 20  XYZ
    dof rx ry rz
    limits (-160.0 20.0)
           (-70.0 70.0)
           (-60.0 70.0)
  end
  begin
     id 3 
     name ltibia
     direction 0.34202 -0.939693 0   
     length 7.50407   
     axis 0 0 20   XYZ
    dof rx
    limits (-10.0 170.0)
  end
  begin
     id 4 
     name lfoot
     direction 0.110749 -0.304281 0.946123   
     length 1.95925   
     axis -90 7.62852e-016 20   XYZ
    dof rx rz
    limits (-45.0 90.0)
           (-70.0 20.0)
  end
  begin
     id 5 
     name ltoes
     direction 1.53554e-011 -4.21843e-011 1   
     length 0.978318   
     axis -90 7.62852e-016 20   XYZ
    dof rx
    limits (-90.0 20.0)
  end
  begin
     id 6 
     name rhipjoint
     direction -0.488109 -0.791693 0.367385   
     length 2.31113  
     axis 0 0 0  XYZ 
  end
  begin
     id 7 
     name rfemur
     direction -0.34202 -0.939693 0   
     length 7.40965   
     axis 0 0 -20   XYZ
    dof rx ry rz
    limits (-160.0 20.0)
           (-70.0 70.0)
           (-70.0 60.0)
  end
  begin
     id 8 
     name rtibia
     direction -0.34202 -0.939693 0   
     length 7.55548   
     axis 0 0 -20   XYZ
    dof rx
    limits (-10.0 170.0)
 end
 begin
     id 9 
     name rfoot
     direction -0.127594 -0.350561 0.927808   
     length 2.07199  
     axis -90 -7.62852e-016 -20   XYZ
    dof rx rz
    limits (-45.0 90.0)
           (-20.0 70.0)
  end
  begin
     id 10 
     name rtoes
     direction -1.53542e-011 -4.21909e-011 1   
     length 1.02667   
     axis -90 -7.62852e-016 -20   XYZ
    dof rx
    limits (-90.0 20.0)
  end
  begin
     id 11 
     name lowerback
     direction -0.0103342 0.997298 -0.0727278   
     length 2.02836   
     axis 0 0 0   XYZ
    dof rx ry rz
    limits (-20.0 45.0)
           (-30.0 30.0)
           (-30.0 30.0)
  end
  begin
     id 12 
     name upperback
     direction 0.0171146 0.999786 -0.011606   
     length 2.03179   
     axis 0 0 0   XYZ
    dof rx ry rz
    limits (-20.0 45.0)
           (-30.0 30.0)
           (-30.0 30.0)
  end
  begin
     id 13 
     name thorax
     direction 0.0216927 0.999513 0.0224343   
     length 2.03882   
     axis 0 0 0   XYZ
    dof rx ry rz
    limits (-20.0 45.0)
           (-30.0 30.0)
           (-30.0 30.0)
  end
  begin
     id 14 
     name lowerneck
     direction 0.000989287 0.993907 0.110221   
     length 1.75428   
     axis 0 0 0   XYZ
    dof rx ry rz
    limits (-20.0 45.0)
           (-30.0 30.0)
           (-30.0 30.0)
  end
  begin
     id 15 
     name upperneck
     direction -0.0172474 0.994813 -0.100253   
     length 1.77058   
     axis 0 0 0   XYZ
    dof rx ry rz
    limits (-20.0 45.0)
           (-30.0 30.0)
           (-30.0 30.0)
  end
  begin
     id 16
     name head
     direction -0.00486455 0.99894 -0.0457663  
     length 1.77427  
     axis 0 0 0   XYZ
    dof rx ry rz
    limits (-20.0 45.0)
           (-30.0 30.0)
           (-30.0 30.0)
  end
  begin
     id 17 
     name lclavicle
     direction 0.927314 0.333734 -0.169441  
     length 3.97584  
     axis 0 0 0   XYZ
    dof ry rz
    limits (-20.0 10.0)
           (0.0 20.0)
  end
  begin
     id 18 
     name lhumerus
     direction 1 -4.48965e-011 -3.25313e-028   
     length 4.76468   
     axis 180 -30 -90   XYZ
    dof rx ry rz
    limits (-60.0 90.0)
           (-90.0 90.0)
           (-90.0 90.0)
  end
  begin
     id 19
     name lradius
     direction 1 -4.48969e-011 -2.8465e-028   
     length 3.52712   
     axis -180 -30 -90   XYZ
    dof rx
    limits (-10.0 170.0)
  end
  begin
     id 20
     name lwrist
     direction 1 -4.4896e-011 -7.78665e-028   
     length 1.76356   
     axis 1.91374e-015 90 90   XYZ
    dof ry
    limits (-180.0 0.0)
 end
  begin
     id 21 
     name lhand
     direction 1 -4.48959e-011 -1.55733e-027   
     length 0.859564   
     axis 9.9371e-016 90 90   XYZ
    dof rx rz
    limits (-90.0 90.0)
           (-45.0 45.0)
  end
  begin
     id 22 
     name lfingers
     direction 1 -4.48965e-011 -3.11466e-027   
     length 0.693002   
     axis 1.98742e-015 90 90   XYZ
    dof rx
    limits (0.0 90.0)
  end
  begin
     id 23
     name lthumb
     direction 0.707107 -6.34948e-011 0.707107   
     length 0.995017   
     axis -90 45 2.85299e-015   XYZ
    dof rx rz
    limits (-45.0 45.0)
           (-45.0 45.0)
  end
  begin
     id 24 
     name rclavicle
     direction -0.899388 0.348209 -0.264294   
     length 3.68366  
     axis 0 0 0   XYZ 
    dof ry rz
    limits (-10.0 20.0)
           (-20.0 0.0)
  end
  begin
     id 25 
     name rhumerus
     direction -1 -4.48965e-011 -3.01536e-027  
     length 4.90577   
     axis 180 30 90   XYZ
    dof rx ry rz
    limits (-90.0 60.0)
           (-90.0 90.0)
           (-90.0 90.0)
  end
  begin
     id 26 
     name rradius
     direction -1 -4.48966e-011 3.93291e-027   
     length 3.42692   
     axis -180 30 90   XYZ
    dof rx
    limits (-10.0 170.0)
  end
  begin
     id 27 
     name rwrist
     direction -1 -4.48969e-011 -7.78665e-028   
     length 1.71346   
     axis 1.91374e-015 -90 -90   XYZ
    dof ry
    limits (-180.0 0.0)
  end
  begin
     id 28
     name rhand
     direction -1 -4.48967e-011 -1.55733e-027   
     length 0.740957   
     axis 9.9371e-016 -90 -90   XYZ
    dof rx rz
    limits (-90.0 90.0)
           (-45.0 45.0)
  end
  begin
     id 29
     name rfingers
     direction -1 -4.48949e-011 -3.11466e-027   
     length 0.597378   
     axis 1.98742e-015 -90 -90   XYZ
    dof rx
    limits (0.0 90.0)
  end
  begin
     id 30
     name rthumb
     direction -0.707107 -6.34931e-011 0.707107   
     length 0.857719   
     axis -90 -45 -2.85299e-015   XYZ
    dof rx rz
    limits (-45.0 45.0)
           (-45.0 45.0)
  end
:hierarchy
  begin
    root lhipjoint rhipjoint lowerback
    lhipjoint lfemur
    lfemur ltibia
    ltibia lfoot
    lfoot ltoes
    rhipjoint rfemur
    rfemur rtibia
    rtibia rfoot
    rfoot rtoes
    lowerback upperback
    upperback thorax
    thorax lowerneck lclavicle rclavicle
    lowerneck upperneck
    upperneck head
    lclavicle lhumerus
    lhumerus lradius
    lradius lwrist
    lwrist lhand lthumb
    lhand lfingers
    rclavicle rhumerus
    rhumerus rradius
    rradius rwrist
    rwrist rhand rthumb
    rhand rfingers
  end

#!OML:ASF E:\I on waltz\AllaLogoMonkeySwing\Project 1\Capture day 1\Session 1\Subject1.ASF
:FULLY-SPECIFIED
:DEGREES
81
root 1.22694 17.8165 5.13753 5.8219 -0.35516 2.2006
lowerback 0.131073 -0.299343 -4.89943
upperback -2.68198 -0.481517 0.0512302
thorax -2.79794 -0.123726 2.81107
lowerneck -13.353 0.19976 -0.748284
upperneck 25.4959 0.293999 0.64093
head 10.3442 0.137473 0.391993
rclavicle 5.79999e-015 -7.00716e-015
rhumerus -28.9464 -22.9175 -79.803
rradius 18.3983
rwrist 11.1593
rhand -5.95303 -35.9002
rfingers 7.12502
rthumb 19.8775 -64.9036
lclavicle 5.79999e-015 -7.00716e-015
lhumerus -39.571 24.0357 78.3174
lradius 33.1363
lwrist -7.59557
lhand -5.86798 -11.2068
lfingers 7.12502
lthumb 19.9593 17.7882
rfemur -4.59573 -1.33191 11.1333
rtibia 15.0625
rfoot -13.5883 -14.5578
rtoes 14.9768
lfemur -3.64761 0.0890488 -19.4843
ltibia 11.0473
lfoot -14.7711 1.29501
ltoes -27.7242
82
root 1.22763 17.8157 5.13487 5.8038 -0.42108 2.18585
lowerback 0.161877 -0.2956 -4.92724
upperback -2.65188 -0.477546 0.066947
thorax -2.78429 -0.121771 2.84292
lowerneck -13.3775 0.216779 -0.765361
upperneck 25.5411 0.332697 0.602938
head 10.3652 0.14897 0.38658
rclavicle -4.53264e-015 9.29318e-015
rhumerus -28.9059 -22.9213 -79.7977
rradius 18.348
rwrist 11.0548
rhand -6.08886 -35.9189
rfingers 7.12502
rthumb 19.7469 -64.9359
lclavicle -4.53264e-015 9.29318e-015
lhumerus -39.3826 23.7952 78.4652
lradius 32.9965
lwrist -7.32375
lhand -6.00963 -11.2577
lfingers 7.12502
lthumb 19.8231 17.7514
rfemur -4.62797 -1.22809 11.154
rtibia 15.0812
rfoot -13.5144 -14.6187
rtoes 14.9923
lfemur -3.65217 0.156013 -19.4595
ltibia 11.0742
lfoot -14.7827 1.30369
ltoes -27.8378
83
root 1.23035 17.8146 5.13229 5.80631 -0.430992 2.2018
lowerback 0.16098 -0.328094 -4.96367
upperback -2.61538 -0.520166 0.0794504
thorax -2.74209 -0.143763 2.87716
lowerneck -13.4108 0.252846 -0.856688
upperneck 25.5788 0.383648 0.68798
head 10.3846 0.173424 0.439067
rclavicle 4.47052e-015 8.44835e-015
rhumerus -28.8533 -22.9874 -79.7711
rradius 18.3019
rwrist 11.1496
rhand -6.06494 -35.9698
rfingers 7.12502
rthumb 19.7699 -64.9843
lclavicle 4.47052e-015 8.44835e-015
lhumerus -39.0665 23.2999 78.7423
lradius 32.6849
lwrist -6.74679
lhand -6.27031 -11.3938
lfingers 7.12502
lthumb 19.5725 17.641
rfemur -4.66667 -1.2282 11.1199
rtibia 15.1052
rfoot -13.5134 -14.635
rtoes 14.8485
lfemur -3.69787 0.159045 -19.488
ltibia 11.1258
lfoot -14.7894 1.30577
ltoes -27.8517
84
root 1.23563 17.814 5.13055 5.79687 -0.431807 2.22403
lowerback 0.165597 -0.376064 -4.95747
upperback -2.57618 -0.583504 0.0685362
thorax -2.6987 -0.177481 2.86374
lowerneck -13.4322 0.308553 -0.86593
upperneck 25.5919 0.454741 0.724923
head 10.3928 0.209355 0.46294
rclavicle 8.36022e-015 1.76918e-014
rhumerus -28.8522 -23.1403 -79.7405
rradius 18.3266
rwrist 11.4116
rhand -6.04763 -35.892
rfingers 7.12502
rthumb 19.7866 -64.9049
lclavicle 8.36022e-015 1.76918e-014
lhumerus -38.9911 23.3262 78.7415
lradius 32.7281
lwrist -6.70967
lhand -6.32171 -11.4014
lfingers 7.12502
lthumb 19.5231 17.6384
rfemur -4.67803 -1.30608 11.0599
rtibia 15.1624
rfoot -13.5913 -14.563
rtoes 14.9675
lfemur -3.71035 0.124172 -19.5467
ltibia 11.1686
lfoot -14.8031 1.33047
ltoes -27.8666
85
root 1.23908 17.8139 5.12835 5.78762 -0.495614 2.27411
lowerback 0.180595 -0.375811 -4.98399
upperback -2.54935 -0.584441 0.0372945
thorax -2.67945 -0.178715 2.84638
lowerneck -13.414 0.324538 -0.813822
upperneck 25.5896 0.477486 0.675083
head 10.3885 0.218824 0.439167
rclavicle -9.92564e-016 -5.59082e-016
rhumerus -28.8805 -23.2286 -79.7216
rradius 18.3663
rwrist 11.5129
rhand -6.08341 -35.9313
rfingers 7.12502
rthumb 19.7522 -64.9477
lclavicle -9.92564e-016 -5.59082e-016
lhumerus -39.0071 23.5627 78.6338
lradius 32.8941
lwrist -7.0069
lhand -6.23416 -11.2497
lfingers 7.12502
lthumb 19.6072 17.7816
rfemur -4.72603 -1.28604 10.982
rtibia 15.2319
rfoot -13.6081 -14.5081
rtoes 15.2931
lfemur -3.70709 0.155863 -19.6295
ltibia 11.1842
lfoot -14.7728 1.3701
ltoes -27.8208
